HIERARCHY
ROOT Hips
{
	OFFSET -0.001795 -0.223333 0.028219
	CHANNELS 6 Xposition Yposition Zposition Zrotation Yrotation Xrotation 
	JOINT LeftUpLeg
	{
		OFFSET 0.069520 -0.091406 -0.006815
		CHANNELS 3 Zrotation Yrotation Xrotation
		JOINT LeftLeg
		{
			OFFSET 0.034277 -0.375199 -0.004496
			CHANNELS 3 Zrotation Yrotation Xrotation
			JOINT LeftFoot
			{
				OFFSET -0.013596 -0.397961 -0.043693
				CHANNELS 3 Zrotation Yrotation Xrotation
				JOINT LeftToe
				{
					OFFSET 0.026358 -0.055791 0.119288
					CHANNELS 3 Zrotation Yrotation Xrotation
					End Site
					{
						OFFSET 0.000000 0.000000 0.000000
					}
				}
			}
		}
	}
	JOINT RightUpLeg
	{
		OFFSET -0.067670 -0.090522 -0.004320
		CHANNELS 3 Zrotation Yrotation Xrotation
		JOINT RightLeg
		{
			OFFSET -0.038290 -0.382569 -0.008850
			CHANNELS 3 Zrotation Yrotation Xrotation
			JOINT RightFoot
			{
				OFFSET 0.015774 -0.398415 -0.042312
				CHANNELS 3 Zrotation Yrotation Xrotation
				JOINT RightToe
				{
					OFFSET -0.025372 -0.048144 0.123348
					CHANNELS 3 Zrotation Yrotation Xrotation
					End Site
					{
						OFFSET 0.000000 0.000000 0.000000
					}
				}
			}
		}
	}
	JOINT Spine
	{
		OFFSET -0.002533 0.108963 -0.026696
		CHANNELS 3 Zrotation Yrotation Xrotation
		JOINT Spine1
		{
			OFFSET 0.005487 0.135180 0.001092
			CHANNELS 3 Zrotation Yrotation Xrotation
			JOINT Spine2
			{
				OFFSET 0.001457 0.052922 0.025425
				CHANNELS 3 Zrotation Yrotation Xrotation
				JOINT Neck
				{
					OFFSET -0.002778 0.213870 -0.042857
					CHANNELS 3 Zrotation Yrotation Xrotation
					JOINT Head
					{
						OFFSET 0.005152 0.064970 0.051349
						CHANNELS 3 Zrotation Yrotation Xrotation
						End Site
						{
							OFFSET 0.000000 0.000000 0.000000
						}
					}
				}
				JOINT LeftShoulder
				{
					OFFSET 0.078845 0.121749 -0.034090
					CHANNELS 3 Zrotation Yrotation Xrotation
					JOINT LeftArm
					{
						OFFSET 0.090977 0.030469 -0.008868
						CHANNELS 3 Zrotation Yrotation Xrotation
						JOINT LeftForeArm
						{
							OFFSET 0.259612 -0.012772 -0.027456
							CHANNELS 3 Zrotation Yrotation Xrotation
							JOINT LeftHand
							{
								OFFSET 0.249234 0.008986 -0.001171
								CHANNELS 3 Zrotation Yrotation Xrotation
								End Site
								{
									OFFSET 0.000000 0.000000 0.000000
								}
							}
						}
					}
				}
				JOINT RightShoulder
				{
					OFFSET -0.081759 0.118833 -0.038615
					CHANNELS 3 Zrotation Yrotation Xrotation
					JOINT RightArm
					{
						OFFSET -0.096012 0.032551 -0.009143
						CHANNELS 3 Zrotation Yrotation Xrotation
						JOINT RightForeArm
						{
							OFFSET -0.253742 -0.013329 -0.021401
							CHANNELS 3 Zrotation Yrotation Xrotation
							JOINT RightHand
							{
								OFFSET -0.255298 0.007772 -0.005559
								CHANNELS 3 Zrotation Yrotation Xrotation
								End Site
								{
									OFFSET 0.000000 0.000000 0.000000
								}
							}
						}
					}
				}
			}
		}
	}
}
MOTION
Frames: 16
Frame Time: 0.050000
0.000000 0.940147 0.000000 -1.745350 -15.892812 -0.405901 7.627703 0.461700 5.207269 -1.617622 0.252139 -1.297298 2.484525 6.520719 8.084851 0.000000 0.000000 0.000000 -5.835743 0.231890 4.888338 6.434575 -0.295215 -4.804531 -7.642929 -20.106497 15.058409 0.000000 0.000000 0.000000 8.112047 -0.298404 2.886966 -6.638099 2.091214 -17.412625 -0.138324 13.047160 25.467849 9.391761 -2.333644 -31.592337 0.000000 0.000000 0.000000 -37.954841 -8.553013 2.145466 -35.511245 -7.784764 -3.237413 2.293284 -19.083144 0.394432 0.000000 0.000000 0.000000 38.731402 0.963456 -0.692142 40.663863 12.703551 -2.281148 -1.681986 27.241534 0.954448 0.000000 0.000000 0.000000 
-0.000276 0.938468 0.000742 -2.331645 -17.070820 0.318442 9.096537 0.495639 5.461519 -3.390206 0.503477 -2.222427 2.902475 7.196315 7.849640 0.000000 0.000000 0.000000 -4.826306 0.175338 3.806328 5.530585 -0.273825 -4.147200 -7.199736 -19.405662 14.164837 0.000000 0.000000 0.000000 9.150402 -0.189250 1.822328 -7.943716 2.510363 -16.779398 0.060508 14.045780 25.485148 9.805914 -2.357840 -32.438690 0.000000 0.000000 0.000000 -39.077956 -7.366278 0.999822 -34.679195 -7.739122 -3.126570 2.875343 -19.055691 0.301735 0.000000 0.000000 0.000000 38.491162 0.145641 -1.107066 42.475736 12.216639 -2.557610 -2.272698 27.037403 0.885711 0.000000 0.000000 0.000000 
-0.000307 0.937842 0.001072 -1.977308 -15.783096 0.664134 8.910893 0.390559 3.979110 -3.439651 0.501440 -0.931604 2.473153 6.405634 7.329107 0.000000 0.000000 0.000000 -4.691951 0.159828 3.294201 4.864444 -0.286742 -3.746403 -7.966594 -20.517517 14.139883 0.000000 0.000000 0.000000 8.968619 -0.162843 1.438023 -8.511373 2.661963 -18.187625 0.755419 12.667462 26.594535 9.450164 -2.402929 -31.963172 0.000000 0.000000 0.000000 -38.722384 -6.924305 1.118103 -34.465694 -8.504016 -3.107736 2.439629 -17.042465 0.344772 0.000000 0.000000 0.000000 37.716262 0.256464 -1.322124 43.478952 10.723446 -3.015850 -1.680254 26.376026 0.962371 0.000000 0.000000 0.000000 
-0.000209 0.937431 0.001279 -2.006907 -16.758252 0.704845 9.138550 0.437913 4.425926 -4.037042 0.593243 -1.371326 2.827754 7.022279 7.438707 0.000000 0.000000 0.000000 -5.028160 0.221447 2.928410 5.324032 -0.287529 -3.375497 -7.531501 -19.846708 13.702217 0.000000 0.000000 0.000000 9.255370 -0.159939 1.468352 -9.367288 2.885729 -18.819284 1.326572 13.425173 27.319840 9.557078 -2.287188 -33.059894 0.000000 0.000000 0.000000 -39.832993 -6.793904 0.910524 -33.645790 -8.557336 -3.031585 2.637750 -17.069314 0.317167 0.000000 0.000000 0.000000 38.880454 -0.223841 -1.686357 42.785024 10.404660 -3.189778 0.065666 28.754889 1.509407 0.000000 0.000000 0.000000 
-0.000010 0.937950 0.001417 -2.067938 -17.057786 0.419986 9.130536 0.442364 4.086619 -3.987499 0.601141 -0.068060 2.981425 7.279684 7.348599 0.000000 0.000000 0.000000 -4.734687 0.192513 2.995104 4.824445 -0.276600 -2.963462 -7.365209 -19.604919 13.659074 0.000000 0.000000 0.000000 8.907337 -0.177794 1.681674 -9.006042 2.776840 -18.575070 1.226247 13.638948 26.878478 9.707977 -2.304140 -33.313775 0.000000 0.000000 0.000000 -39.438096 -6.799122 0.895406 -33.692058 -7.937202 -3.150161 1.274722 -17.978522 0.535212 0.000000 0.000000 0.000000 38.331749 0.234001 -1.285495 42.016286 10.815316 -2.990523 2.340063 33.868958 2.492097 0.000000 0.000000 0.000000 
0.000494 0.938145 0.001584 -2.222869 -17.597276 0.735690 9.085969 0.445029 3.914241 -3.844341 0.583315 -0.075863 3.257892 7.763688 7.431686 0.000000 0.000000 0.000000 -5.138532 0.253185 2.636317 5.678571 -0.289466 -2.999808 -7.064985 -19.188670 13.731563 0.000000 0.000000 0.000000 8.704432 -0.120264 1.152218 -8.669511 2.652726 -18.663061 1.221881 14.184233 26.863081 10.109135 -2.485506 -33.181502 0.000000 0.000000 0.000000 -38.632698 -7.038945 1.025400 -34.264464 -7.647152 -3.237945 0.634949 -18.503125 0.645691 0.000000 0.000000 0.000000 37.324684 1.120851 -0.440549 40.359013 12.432695 -2.455909 6.646952 43.131811 5.011621 0.000000 0.000000 0.000000 
0.001060 0.938403 0.002079 -2.286764 -18.579517 0.684330 8.812256 0.481276 4.183686 -3.584986 0.552317 -0.003109 3.702962 8.547184 7.584572 0.000000 0.000000 0.000000 -5.659407 0.324428 2.475290 6.466358 -0.294045 -2.792798 -6.558829 -18.446050 13.635009 0.000000 0.000000 0.000000 8.761961 -0.098302 1.041287 -8.400524 2.536435 -18.794333 0.620303 14.438053 26.458471 11.112796 -3.127241 -32.639336 0.000000 0.000000 0.000000 -37.484436 -7.150391 1.399463 -34.824283 -6.421447 -3.659536 -0.704305 -20.219694 0.943360 0.000000 0.000000 0.000000 35.286675 2.814074 0.716769 38.134417 16.425933 -1.159153 13.759834 57.463200 10.944684 0.000000 0.000000 0.000000 
0.001758 0.938352 0.002919 -2.522496 -19.648766 0.823528 8.835862 0.526474 4.530944 -3.595874 0.561282 -0.250487 4.170599 9.366930 7.683768 0.000000 0.000000 0.000000 -5.792008 0.363949 2.146286 6.834604 -0.285934 -2.533056 -6.029632 -17.660623 13.458434 0.000000 0.000000 0.000000 8.959626 -0.049767 0.705549 -8.397324 2.518734 -18.671859 0.086909 15.149627 25.374016 12.106189 -3.582048 -32.625906 0.000000 0.000000 0.000000 -36.018209 -7.330431 1.515970 -35.246389 -5.903695 -3.758407 -1.638458 -20.776182 1.122161 0.000000 0.000000 0.000000 33.067569 4.251008 1.783675 34.697195 21.643990 0.242635 13.695587 75.107321 15.356616 0.000000 0.000000 0.000000 
0.002388 0.938427 0.004212 -2.727079 -20.738414 1.001599 8.736931 0.571727 4.918634 -3.486671 0.549965 -0.604401 4.655252 10.218048 7.870375 0.000000 0.000000 0.000000 -5.840047 0.388208 2.161217 6.976080 -0.252935 -2.927323 -5.447381 -16.820258 13.444513 0.000000 0.000000 0.000000 9.078695 0.023503 0.172411 -8.026472 2.357311 -19.170906 -0.228074 16.278542 25.106393 13.661907 -4.181143 -33.209123 0.000000 0.000000 0.000000 -34.267685 -8.131521 2.006337 -36.840761 -6.089712 -3.824525 -1.401532 -20.700007 1.071255 0.000000 0.000000 0.000000 28.133964 5.404964 2.726561 32.483738 31.141488 2.493917 -66.792865 85.950914 -56.656019 0.000000 0.000000 0.000000 
0.003051 0.938199 0.005870 -2.892835 -21.831335 1.007922 8.911732 0.642267 5.559548 -3.938127 0.628364 -1.047027 5.057896 10.928778 8.000825 0.000000 0.000000 0.000000 -5.910769 0.415477 2.155593 7.061689 -0.228305 -2.926583 -4.912953 -16.006355 13.245187 0.000000 0.000000 0.000000 9.761015 0.076425 -0.012513 -8.140006 2.342093 -20.084871 -0.686952 17.455439 25.195464 14.888802 -4.527439 -34.286126 0.000000 0.000000 0.000000 -32.623909 -8.395054 2.097905 -38.059011 -6.406210 -3.845548 -1.145666 -21.014586 1.037741 0.000000 0.000000 0.000000 22.374350 7.106618 3.728377 25.816815 39.448202 3.110506 -121.030434 73.070555 -97.680171 0.000000 0.000000 0.000000 
0.003636 0.938407 0.007832 -3.008468 -21.983713 1.115820 8.785224 0.635696 5.431292 -3.709584 0.595811 -0.703059 5.176984 11.140498 7.948317 0.000000 0.000000 0.000000 -5.728674 0.393157 2.426669 6.764643 -0.209665 -3.385671 -4.772718 -15.841561 13.421412 0.000000 0.000000 0.000000 9.822121 0.054145 0.162267 -8.099601 2.307201 -20.870629 -0.895333 18.387173 24.863546 16.286241 -5.023797 -34.606276 0.000000 0.000000 0.000000 -30.619987 -9.138614 2.309410 -38.816859 -6.731610 -3.723848 -1.127330 -21.326461 1.024078 0.000000 0.000000 0.000000 16.766373 7.726361 3.917110 16.687681 46.374907 1.779761 -118.561556 60.990529 -81.621212 0.000000 0.000000 0.000000 
0.004180 0.938631 0.009842 -3.236544 -21.648561 1.342298 8.890260 0.622677 5.403285 -3.537031 0.564156 -0.862496 5.060163 10.938130 7.872414 0.000000 0.000000 0.000000 -5.413229 0.349599 2.651680 6.526197 -0.201631 -3.791112 -4.853682 -16.027402 13.730203 0.000000 0.000000 0.000000 10.461931 0.120216 -0.211533 -8.243860 2.353624 -21.052926 -1.404571 18.974496 24.391063 17.338883 -5.205964 -35.548129 0.000000 0.000000 0.000000 -29.568755 -9.997815 2.547844 -39.299408 -7.152114 -3.515902 -0.332442 -21.280423 0.848992 0.000000 0.000000 0.000000 11.879417 8.827060 4.180762 4.842491 48.113955 -1.830743 -113.634952 50.823289 -64.812994 0.000000 0.000000 0.000000 
0.004778 0.938550 0.011625 -3.600213 -21.247019 1.421831 8.989049 0.604581 5.285022 -3.069271 0.488099 -0.530032 4.965887 10.788293 7.529338 0.000000 0.000000 0.000000 -4.897526 0.279611 2.833823 6.195890 -0.212580 -3.745922 -4.993757 -16.254659 13.865763 0.000000 0.000000 0.000000 10.853624 0.104064 -0.027491 -8.336370 2.359528 -22.335736 -1.344164 19.606918 24.875189 18.865391 -5.806976 -35.836329 0.000000 0.000000 0.000000 -28.084387 -10.550476 2.638171 -39.955416 -7.037157 -3.566029 -0.226019 -21.440551 0.810241 0.000000 0.000000 0.000000 7.206076 8.012636 3.460427 -4.454097 47.866490 -4.739314 -106.038083 43.442589 -49.691817 0.000000 0.000000 0.000000 
0.005600 0.938740 0.013028 -4.172461 -21.785231 1.746756 9.264587 0.623645 5.315039 -2.850315 0.457049 -0.458499 5.252884 11.304504 7.489039 0.000000 0.000000 0.000000 -4.670427 0.262452 2.869244 6.562615 -0.192239 -4.049362 -4.613681 -15.777574 14.133879 0.000000 0.000000 0.000000 11.633539 0.157637 -0.194921 -8.256503 2.325913 -22.428911 -1.845110 20.254101 24.261730 20.746307 -6.594836 -36.106389 0.000000 0.000000 0.000000 -27.878557 -10.721329 2.583477 -39.207554 -7.714092 -3.217622 -0.263202 -20.427142 0.759649 0.000000 0.000000 0.000000 3.301118 7.393234 2.827521 -9.760960 45.308632 -5.859759 -98.557853 38.038437 -38.619503 0.000000 0.000000 0.000000 
0.006718 0.938936 0.014310 -4.547815 -21.813093 1.916980 9.553080 0.642906 5.668427 -2.866953 0.458256 -1.030908 5.249004 11.304615 7.488083 0.000000 0.000000 0.000000 -4.348628 0.221802 3.051651 6.477784 -0.181749 -4.356137 -4.500458 -15.680112 14.420387 0.000000 0.000000 0.000000 11.966812 0.249028 -0.706299 -8.239521 2.330496 -22.067171 -1.948752 20.314538 24.120299 21.813696 -7.030618 -36.354157 0.000000 0.000000 0.000000 -28.326295 -10.362011 2.270409 -38.708763 -8.606547 -2.876660 0.518006 -19.662501 0.595943 0.000000 0.000000 0.000000 1.279874 6.580988 2.330641 -13.677343 41.565630 -6.169775 -87.880308 31.931241 -27.071735 0.000000 0.000000 0.000000 
0.008166 0.939014 0.015923 -4.761934 -21.796930 1.753851 9.724627 0.662582 6.003678 -2.979745 0.475168 -1.039563 5.210374 11.255313 7.342846 0.000000 0.000000 0.000000 -3.958128 0.166573 3.397977 5.935847 -0.184500 -4.379323 -4.452832 -15.625281 14.522303 0.000000 0.000000 0.000000 12.068655 0.261233 -0.718605 -7.739389 2.194199 -21.860853 -2.545726 20.110957 23.630315 22.684094 -7.780224 -35.213185 0.000000 0.000000 0.000000 -28.960060 -9.332699 1.574194 -37.301168 -9.617713 -2.471504 0.970403 -18.730580 0.493580 0.000000 0.000000 0.000000 -0.082652 5.347521 1.775351 -15.981722 37.161439 -5.716333 -75.348540 23.379457 -15.572037 0.000000 0.000000 0.000000 
